<svg id="Layer_1" data-name="Layer 1" xmlns="http://www.w3.org/2000/svg" viewBox="0 0 220.25 70"><defs><style>.cls-1{opacity:0.99;}.cls-2{fill:#cb2026;}</style></defs><title>grc-logo-06</title><path d="M116.81,9.63h3.48v0q-.66.44-.66,3v3.3a9.09,9.09,0,0,1-2.38,1,9.29,9.29,0,0,1-2.58.4,6.73,6.73,0,0,1-7-7.06,7.24,7.24,0,0,1,2-5.43,7.4,7.4,0,0,1,5.4-2,12.63,12.63,0,0,1,3.8.54l.3,3.26,0,0A5.26,5.26,0,0,0,115,5a4,4,0,0,0-3.25,1.37,5.59,5.59,0,0,0-1.17,3.75,5.73,5.73,0,0,0,1.14,3.76,3.85,3.85,0,0,0,3.14,1.38,5.15,5.15,0,0,0,2.2-.44V11.55a4.08,4.08,0,0,0-3,1l0,0,.32-3.06A16.37,16.37,0,0,0,116.81,9.63Z"/><path d="M135.71,13.79a9.77,9.77,0,0,0,.94,2,5.41,5.41,0,0,0,1,1.27v0h-4.52v0a1.05,1.05,0,0,0,.31-.81,5,5,0,0,0-.31-1.65l-.18-.48h-5.16l-.18.48a5.37,5.37,0,0,0-.32,1.65,1.12,1.12,0,0,0,.28.81v0h-4.2v0a7.77,7.77,0,0,0,1.94-3.24l2.86-8.24a3.29,3.29,0,0,0,.11-1.5,1.48,1.48,0,0,0-.47-.84v0h5.3v0a1.75,1.75,0,0,0-.48.86,3,3,0,0,0,.12,1.48Zm-5.38-8A20.89,20.89,0,0,1,129.21,10l-.74,2.12h3.84L131.57,10a22.2,22.2,0,0,1-1.16-4.18Z"/><path d="M141.49,17.07v0a2.34,2.34,0,0,0,.76-1.06,4.91,4.91,0,0,0,.32-1.9v-8a5.14,5.14,0,0,0-.28-1.69,2.26,2.26,0,0,0-.8-1.17v0H146a5.18,5.18,0,0,0,.82,1.92l2.88,4.84a28.83,28.83,0,0,1,1.84,4h.08a23.89,23.89,0,0,1-.32-4.12V6.17A5.44,5.44,0,0,0,151,4.25a2.06,2.06,0,0,0-.73-1v0h4.62v0a2.21,2.21,0,0,0-.76,1.05,5,5,0,0,0-.32,1.91v7.9a5,5,0,0,0,.32,1.91,2.2,2.2,0,0,0,.76,1v0h-4.22a13.93,13.93,0,0,0-1-1.9l-2.82-4.58A21,21,0,0,1,144.81,6h-.08a28,28,0,0,1,.36,4.64v3.4a5.44,5.44,0,0,0,.29,1.92,2,2,0,0,0,.73,1v0Z"/><path d="M165.75,3.17a5.39,5.39,0,0,1,3.72,1.18,4.24,4.24,0,0,1,1.32,3.34,4.66,4.66,0,0,1-1.3,3.6,5.32,5.32,0,0,1-3.74,1.2h-1.64v1.66a4.73,4.73,0,0,0,.32,1.85,2.2,2.2,0,0,0,.76,1v0h-4.9v0a2.34,2.34,0,0,0,.76-1.06,4.91,4.91,0,0,0,.32-1.9v-8a4.71,4.71,0,0,0-.32-1.85,2.2,2.2,0,0,0-.76-1v0Zm-.46,7.34a2.59,2.59,0,0,0,2-.67,2.82,2.82,0,0,0,.65-2,2.77,2.77,0,0,0-.65-2,2.74,2.74,0,0,0-2-.65h-1.18v5.34Z"/><path d="M185.63,13.79a9.77,9.77,0,0,0,.94,2,5.41,5.41,0,0,0,1,1.27v0h-4.52v0a1.06,1.06,0,0,0,.31-.81,5,5,0,0,0-.31-1.65l-.18-.48h-5.16l-.18.48a5.38,5.38,0,0,0-.32,1.65,1.12,1.12,0,0,0,.28.81v0h-4.2v0a7.77,7.77,0,0,0,1.94-3.24l2.86-8.24a3.29,3.29,0,0,0,.11-1.5,1.48,1.48,0,0,0-.47-.84v0h5.3v0a1.76,1.76,0,0,0-.48.86,3,3,0,0,0,.12,1.48Zm-5.38-8A21,21,0,0,1,179.13,10l-.74,2.12h3.84L181.49,10a22.18,22.18,0,0,1-1.16-4.18Z"/><path d="M200.55,3l.34,3.66,0,0a3,3,0,0,0-2.6-1.48h-1.5v8.7a5.13,5.13,0,0,0,.35,2A2.13,2.13,0,0,0,198,17v0h-5.18v0a2.33,2.33,0,0,0,.85-1.11,4.92,4.92,0,0,0,.37-2V5.21h-1.52a3,3,0,0,0-2.6,1.48l0,0L190.19,3a21.27,21.27,0,0,0,2.74.16h4.88A21.28,21.28,0,0,0,200.55,3Z"/><path d="M205.47,17.07v0a2.35,2.35,0,0,0,.76-1.06,4.93,4.93,0,0,0,.32-1.9V6.17a4.91,4.91,0,0,0-.32-1.91,2.35,2.35,0,0,0-.76-1.05v0h4.92v0a2.34,2.34,0,0,0-.76,1.06,4.92,4.92,0,0,0-.32,1.9v7.9a4.91,4.91,0,0,0,.32,1.91,2.34,2.34,0,0,0,.76,1v0Z"/><path d="M117.81,32.37a5.14,5.14,0,0,0,2.6,2.34v0l-4.1.74a11.48,11.48,0,0,0-1-2.22l-3.1-5.3h1q2.68,0,2.68-2.48a2.24,2.24,0,0,0-.7-1.74,2.77,2.77,0,0,0-2-.62l-1.4,0v9a5,5,0,0,0,.3,1.83,2.4,2.4,0,0,0,.7,1v0h-4.82v0a2.2,2.2,0,0,0,.76-1,5,5,0,0,0,.32-1.91v-8a4.73,4.73,0,0,0-.32-1.85,2.21,2.21,0,0,0-.76-1v0h5.68a5.59,5.59,0,0,1,3.72,1.13,3.83,3.83,0,0,1,1.34,3.09,3.74,3.74,0,0,1-2.72,4Z"/><path d="M130.67,35.47a6.82,6.82,0,0,1-5.2-2,7.25,7.25,0,0,1-1.92-5.19,7.45,7.45,0,0,1,2-5.44,7.24,7.24,0,0,1,5.43-2,7,7,0,0,1,5.17,2,7.09,7.09,0,0,1,2,5.21,7.38,7.38,0,0,1-2,5.43A7.25,7.25,0,0,1,130.67,35.47Zm.2-2.08A3.81,3.81,0,0,0,133.94,32a5.73,5.73,0,0,0,1.19-3.79A6,6,0,0,0,134,24.25a3.93,3.93,0,0,0-3.2-1.4,3.76,3.76,0,0,0-3.1,1.42,5.86,5.86,0,0,0-1.14,3.78A6.18,6.18,0,0,0,127.65,32,3.86,3.86,0,0,0,130.87,33.39Z"/><path d="M153.51,31.79a9.77,9.77,0,0,0,.94,2,5.41,5.41,0,0,0,1,1.27v0H151v0a1.05,1.05,0,0,0,.31-.81,5,5,0,0,0-.31-1.65l-.18-.48h-5.16l-.18.48a5.37,5.37,0,0,0-.32,1.65,1.12,1.12,0,0,0,.28.81v0h-4.2v0a7.77,7.77,0,0,0,1.94-3.24L146,23.55a3.29,3.29,0,0,0,.11-1.5,1.48,1.48,0,0,0-.47-.84v0h5.3v0a1.75,1.75,0,0,0-.48.86,3,3,0,0,0,.12,1.48Zm-5.38-8A20.89,20.89,0,0,1,147,28l-.74,2.12h3.84L149.37,28a22.2,22.2,0,0,1-1.16-4.18Z"/><path d="M159.29,35.07v0a2.34,2.34,0,0,0,.76-1.06,4.91,4.91,0,0,0,.32-1.9v-7.9a5,5,0,0,0-.33-1.86,2.34,2.34,0,0,0-.75-1.1v0h5.8A6.94,6.94,0,0,1,170.16,23a6.8,6.8,0,0,1,1.89,5.09,7,7,0,0,1-1.82,5.15,7.45,7.45,0,0,1-5.46,1.81Zm3.82-2H165A3.75,3.75,0,0,0,168,31.81a5.67,5.67,0,0,0,1.06-3.7,5.66,5.66,0,0,0-1-3.75,4,4,0,0,0-3.18-1.21h-1.76Z"/><path d="M114.67,53.37a6.74,6.74,0,0,1-5.11-2,7.14,7.14,0,0,1-1.93-5.14,7.1,7.1,0,0,1,2-5.34,7.54,7.54,0,0,1,5.48-2,12.42,12.42,0,0,1,3.52.5l.32,3.46,0,0a3.86,3.86,0,0,0-1.61-1.4,5.07,5.07,0,0,0-2.21-.48,4.22,4.22,0,0,0-3.31,1.35A5.3,5.3,0,0,0,110.61,46a6.06,6.06,0,0,0,1.11,3.8,3.74,3.74,0,0,0,3.15,1.44,5.44,5.44,0,0,0,2.6-.57,6,6,0,0,0,1.9-1.67l0,0-.48,3.58A12.78,12.78,0,0,1,114.67,53.37Z"/><path d="M135.21,49.79a9.77,9.77,0,0,0,.94,2,5.41,5.41,0,0,0,1,1.27v0h-4.52v0a1.05,1.05,0,0,0,.31-.81,5,5,0,0,0-.31-1.65l-.18-.48h-5.16l-.18.48a5.37,5.37,0,0,0-.32,1.65,1.12,1.12,0,0,0,.28.81v0h-4.2v0a7.77,7.77,0,0,0,1.94-3.24l2.86-8.24a3.29,3.29,0,0,0,.11-1.5,1.48,1.48,0,0,0-.47-.84v0h5.3v0a1.75,1.75,0,0,0-.48.86,3,3,0,0,0,.12,1.48Zm-5.38-8A20.89,20.89,0,0,1,128.71,46L128,48.13h3.84L131.07,46a22.2,22.2,0,0,1-1.16-4.18Z"/><path d="M150.87,50.37a5.14,5.14,0,0,0,2.6,2.34v0l-4.1.74a11.42,11.42,0,0,0-1-2.22l-3.1-5.3h1q2.68,0,2.68-2.48a2.24,2.24,0,0,0-.7-1.74,2.77,2.77,0,0,0-2-.62l-1.4,0v9a4.94,4.94,0,0,0,.3,1.83,2.39,2.39,0,0,0,.7,1v0H141v0a2.2,2.2,0,0,0,.76-1,5,5,0,0,0,.32-1.91v-8a4.71,4.71,0,0,0-.32-1.85,2.2,2.2,0,0,0-.76-1v0h5.68a5.6,5.6,0,0,1,3.72,1.13,3.83,3.83,0,0,1,1.34,3.09,3.74,3.74,0,0,1-2.72,4Z"/><path d="M167.09,50.37a5.14,5.14,0,0,0,2.6,2.34v0l-4.1.74a11.42,11.42,0,0,0-1-2.22l-3.1-5.3h1q2.68,0,2.68-2.48a2.24,2.24,0,0,0-.7-1.74,2.77,2.77,0,0,0-2-.62l-1.4,0v9a4.94,4.94,0,0,0,.3,1.83,2.39,2.39,0,0,0,.7,1v0h-4.82v0a2.2,2.2,0,0,0,.76-1,5,5,0,0,0,.32-1.91v-8a4.71,4.71,0,0,0-.32-1.85,2.2,2.2,0,0,0-.76-1v0h5.68a5.6,5.6,0,0,1,3.72,1.13A3.83,3.83,0,0,1,168,43.39a3.74,3.74,0,0,1-2.72,4Z"/><path d="M173.43,53.07v0a2.34,2.34,0,0,0,.76-1.06,4.91,4.91,0,0,0,.32-1.9v-7.9a4.89,4.89,0,0,0-.32-1.91,2.35,2.35,0,0,0-.76-1.05v0h4.92v0a2.34,2.34,0,0,0-.76,1.06,4.9,4.9,0,0,0-.32,1.9v7.9a4.89,4.89,0,0,0,.32,1.91,2.34,2.34,0,0,0,.76,1v0Z"/><path d="M193.73,49.23l0,0-.56,4a15.45,15.45,0,0,0-2.44-.16h-7.06v0a2.35,2.35,0,0,0,.76-1.06,4.93,4.93,0,0,0,.32-1.9v-7.9a4.91,4.91,0,0,0-.32-1.91,2.35,2.35,0,0,0-.76-1.05v0h7.18A10.34,10.34,0,0,0,193,39l.34,3.58,0,0q-.72-1.48-3.14-1.48h-2.64v3.52h1.52a25.6,25.6,0,0,0,3.12-.14l-.58,3.36h0a2.07,2.07,0,0,0-2.18-1.26h-1.84v4.5h2.18A4.58,4.58,0,0,0,193.73,49.23Z"/><path d="M208.59,50.37a5.14,5.14,0,0,0,2.6,2.34v0l-4.1.74a11.48,11.48,0,0,0-1-2.22L203,46h1q2.68,0,2.68-2.48a2.24,2.24,0,0,0-.7-1.74,2.77,2.77,0,0,0-2-.62l-1.4,0v9a5,5,0,0,0,.3,1.83,2.4,2.4,0,0,0,.7,1v0h-4.82v0a2.2,2.2,0,0,0,.76-1,5,5,0,0,0,.32-1.91v-8a4.73,4.73,0,0,0-.32-1.85,2.21,2.21,0,0,0-.76-1v0h5.68a5.59,5.59,0,0,1,3.72,1.13,3.83,3.83,0,0,1,1.34,3.09,3.74,3.74,0,0,1-2.72,4Z"/><path class="cls-1" d="M5.58,58.94v7l1.22.3v.26H3.24v-.26L4.46,66v-7h-2l-.58,1.63H1.57V58.5h6.9v2.07H8.16l-.58-1.63Z"/><path class="cls-1" d="M10.12,66.53v-.24L11,66v-4.5l-.88-.11v-.29L12,60.68V62a3.17,3.17,0,0,1,1.83-1.28.52.52,0,0,1,.55.55,1.51,1.51,0,0,1-.22.66,3,3,0,0,0-.94-.22,1.65,1.65,0,0,0-1.24.79V66l1.07.26v.24Z"/><path class="cls-1" d="M20.78,66.51a3.47,3.47,0,0,1-1.09.19c-.47,0-.78-.24-.78-.67v-.22a2.24,2.24,0,0,1-1.71.89c-.74,0-1.39-.36-1.39-1.14,0-1,1.12-1.7,3.11-1.94V62.2c0-.87-.34-1.19-.88-1.19s-1.15.46-1.17,1.45h-.23c-.54,0-.67-.2-.67-.47,0-.78,1.19-1.32,2.39-1.32a1.4,1.4,0,0,1,1.55,1.59v3.24c0,.55.16.73.59.73h.3Zm-3.17-.38a1.7,1.7,0,0,0,1.29-.82V64c-1.22.19-2,.7-2,1.37A.71.71,0,0,0,17.62,66.13Z"/><path class="cls-1" d="M22.21,66.53v-.24l.88-.26v-4.5l-.87-.11v-.29l1.86-.46v.9a3,3,0,0,1,2-.9,1.6,1.6,0,0,1,1.66,1.81V66l.88.26v.24H25.83v-.24l.88-.26V62.72c0-.91-.49-1.33-1.22-1.33a2.06,2.06,0,0,0-1.42.65v4l.88.26v.24Z"/><path class="cls-1" d="M32,66.7c-1,0-2-.35-2-1.06,0-.36.35-.65.82-.68,0,.94.46,1.4,1.21,1.4s1.21-.37,1.21-.94-.43-.79-1.32-1.24-1.68-.87-1.68-1.83a1.8,1.8,0,0,1,2-1.68c1,0,1.72.36,1.72,1,0,.43-.41.58-.88.58,0-.71-.26-1.26-1-1.26A.9.9,0,0,0,31,62c0,.59.62.89,1.42,1.27S34.1,64.1,34.1,65,33.12,66.7,32,66.7Z"/><path class="cls-1" d="M35.63,69.29v-.24l.88-.26V61.53l-.88-.11v-.29l1.86-.46v.9a2.65,2.65,0,0,1,1.89-.9c1.27,0,2.2,1.1,2.2,2.72,0,2.23-1.42,3.3-2.88,3.3a4.48,4.48,0,0,1-1.21-.2v2.29l1,.26v.24ZM37.49,62v3.83a2,2,0,0,0,1.29.49c1,0,1.8-1,1.8-2.48s-.65-2.47-1.74-2.47A2,2,0,0,0,37.49,62Z"/><path class="cls-1" d="M43.5,63.73a2.78,2.78,0,1,1,2.76,3A2.74,2.74,0,0,1,43.5,63.73Zm4.39,0c0-1.92-.61-2.66-1.63-2.66s-1.61.75-1.61,2.67.61,2.67,1.63,2.67S47.89,65.6,47.89,63.68Z"/><path class="cls-1" d="M50.75,66.53v-.24l.88-.26v-4.5l-.88-.11v-.29l1.86-.46V62a3.17,3.17,0,0,1,1.83-1.28.52.52,0,0,1,.55.55,1.51,1.51,0,0,1-.22.66,3,3,0,0,0-.94-.22,1.65,1.65,0,0,0-1.24.79V66l1.07.26v.24Z"/><path class="cls-1" d="M57.11,65.41V61.32h-.73v-.47h.74l.49-1.39h.48v1.39h1.66v.47H58.09v3.9c0,.72.28.95.71.95a1.87,1.87,0,0,0,.89-.3l.11.32a2.47,2.47,0,0,1-1.42.52A1.13,1.13,0,0,1,57.11,65.41Z"/><path class="cls-1" d="M72,66.14a6.4,6.4,0,0,1-2.51.56,3.87,3.87,0,0,1-4.15-4.09c0-2.79,1.68-4.28,4-4.28a9.62,9.62,0,0,1,2.72.52l.07,1.83H71.7a2.39,2.39,0,0,0-2.46-2c-1.67,0-2.73,1.48-2.73,3.77s1.06,3.8,3,3.8a2.11,2.11,0,0,0,2.15-2h.46Z"/><path class="cls-1" d="M74.17,63.73a2.74,2.74,0,0,1,2.78-3,2.71,2.71,0,0,1,2.76,3,2.78,2.78,0,1,1-5.54.08Zm4.39,0c0-1.92-.61-2.66-1.63-2.66s-1.61.75-1.61,2.67.61,2.67,1.63,2.67S78.56,65.6,78.56,63.68Z"/><path class="cls-1" d="M81.42,66.53v-.24l.88-.26v-4.5l-.88-.11v-.29l1.86-.46v.9a3,3,0,0,1,2-.9,1.6,1.6,0,0,1,1.66,1.81V66l.88.26v.24H85v-.24l.88-.26V62.72c0-.91-.49-1.33-1.22-1.33a2.06,2.06,0,0,0-1.42.65v4l.88.26v.24Z"/><path class="cls-1" d="M89.73,65.41V61.32H89v-.47h.74l.49-1.39h.48v1.39h1.66v.47H90.72v3.9c0,.72.28.95.71.95a1.87,1.87,0,0,0,.89-.3l.11.32A2.47,2.47,0,0,1,91,66.7,1.13,1.13,0,0,1,89.73,65.41Z"/><path class="cls-1" d="M94,66.53v-.24l.88-.26v-4.5L94,61.42v-.29l1.86-.46V62a3.17,3.17,0,0,1,1.83-1.28.52.52,0,0,1,.55.55,1.5,1.5,0,0,1-.22.66,3,3,0,0,0-.94-.22,1.65,1.65,0,0,0-1.24.79V66l1.07.26v.24Z"/><path class="cls-1" d="M104.67,66.51a3.46,3.46,0,0,1-1.09.19c-.47,0-.78-.24-.78-.67v-.22a2.24,2.24,0,0,1-1.71.89c-.74,0-1.39-.36-1.39-1.14,0-1,1.12-1.7,3.11-1.94V62.2c0-.87-.33-1.19-.87-1.19s-1.15.46-1.18,1.45h-.23c-.54,0-.67-.2-.67-.47,0-.78,1.19-1.32,2.39-1.32a1.4,1.4,0,0,1,1.55,1.59v3.24c0,.55.16.73.59.73h.3Zm-3.17-.38a1.7,1.7,0,0,0,1.29-.82V64c-1.22.19-2,.7-2,1.37A.71.71,0,0,0,101.5,66.13Z"/><path class="cls-1" d="M109,60.68c1,0,1.85.52,1.85,1.17,0,.4-.36.59-.94.59,0-.85-.36-1.43-1-1.43-1,0-1.7,1-1.7,2.58S107.88,66,109,66a2.89,2.89,0,0,0,1.7-.66l.17.28a3.61,3.61,0,0,1-2.3,1,2.38,2.38,0,0,1-2.47-2.59C106.14,62.5,107,60.68,109,60.68Z"/><path class="cls-1" d="M113.21,65.41V61.32h-.73v-.47h.74l.49-1.39h.48v1.39h1.65v.47h-1.65v3.9c0,.72.28.95.71.95a1.87,1.87,0,0,0,.89-.3l.11.32a2.47,2.47,0,0,1-1.42.52A1.13,1.13,0,0,1,113.21,65.41Z"/><path class="cls-1" d="M117.33,63.93c0-1.93,1.09-3.25,2.71-3.25a1.94,1.94,0,0,1,2.16,2.07,2.85,2.85,0,0,1,0,.38h-3.81c0,.12,0,.24,0,.37,0,1.61.74,2.55,1.89,2.55a3,3,0,0,0,1.76-.65l.17.28a3.59,3.59,0,0,1-2.4,1C118.34,66.7,117.33,65.68,117.33,63.93Zm1.07-1.15h2.66c0-.13,0-.24,0-.36,0-.85-.37-1.4-1.13-1.4S118.61,61.56,118.4,62.78Z"/><path class="cls-1" d="M124,66.53v-.24l.88-.26v-4.5l-.88-.11v-.29l1.86-.46V62a3.17,3.17,0,0,1,1.83-1.28.52.52,0,0,1,.55.55,1.51,1.51,0,0,1-.22.66,3,3,0,0,0-.94-.22,1.65,1.65,0,0,0-1.24.79V66l1.07.26v.24Z"/><path class="cls-1" d="M140.31,62.8l-1.5,2.07c.67.9,1,1.33,1.69,1.33H141v.26a4.11,4.11,0,0,1-1.22.23,2,2,0,0,1-1.7-1,3,3,0,0,1-2.21,1,2.23,2.23,0,0,1-2.47-2.13,2.84,2.84,0,0,1,2-2.51,3.24,3.24,0,0,1-.74-1.75,1.78,1.78,0,0,1,2-1.69c.95,0,1.85.49,1.85,1.48a2.44,2.44,0,0,1-1.64,2.1l1.7,2.31,1.14-1.71-.84-.35V62.2h2.43v.24Zm-2.45,2.57-2.22-3a2.2,2.2,0,0,0-1.14,2,1.69,1.69,0,0,0,1.71,1.85A2.23,2.23,0,0,0,137.86,65.37Zm-1.59-4,.36.49a2.16,2.16,0,0,0,.91-1.75c0-.62-.3-1.17-.95-1.17a.93.93,0,0,0-1,1A2.63,2.63,0,0,0,136.27,61.41Z"/><path class="cls-1" d="M150.08,66.27v.26h-3.51v-.26l1.14-.3V59.06l-1.14-.3V58.5h5.92v2h-.31l-.59-1.59h-2.77v3.17h1.57l.42-1.19h.26v2.81h-.26l-.42-1.19h-1.57V66Z"/><path class="cls-1" d="M154.05,66.53v-.24l.88-.26V58.68l-.88-.11v-.29l1.86-.46V66l.88.26v.24Z"/><path class="cls-1" d="M158.29,63.93c0-1.93,1.09-3.25,2.71-3.25a1.94,1.94,0,0,1,2.16,2.07,2.85,2.85,0,0,1,0,.38h-3.81c0,.12,0,.24,0,.37,0,1.61.74,2.55,1.89,2.55a3,3,0,0,0,1.76-.65l.17.28a3.59,3.59,0,0,1-2.4,1C159.3,66.7,158.29,65.68,158.29,63.93Zm1.07-1.15H162c0-.13,0-.24,0-.36,0-.85-.37-1.4-1.13-1.4S159.56,61.56,159.36,62.78Z"/><path class="cls-1" d="M165,63.93c0-1.93,1.09-3.25,2.71-3.25a1.94,1.94,0,0,1,2.16,2.07,2.84,2.84,0,0,1,0,.38H166c0,.12,0,.24,0,.37,0,1.61.74,2.55,1.89,2.55a3,3,0,0,0,1.76-.65l.17.28a3.59,3.59,0,0,1-2.4,1C166,66.7,165,65.68,165,63.93ZM166,62.78h2.66c0-.13,0-.24,0-.36,0-.85-.37-1.4-1.13-1.4S166.23,61.56,166,62.78Z"/><path class="cls-1" d="M172.25,65.41V61.32h-.73v-.47h.74l.49-1.39h.48v1.39h1.65v.47h-1.65v3.9c0,.72.28.95.71.95a1.87,1.87,0,0,0,.89-.3l.11.32a2.47,2.47,0,0,1-1.42.52A1.13,1.13,0,0,1,172.25,65.41Z"/><path class="cls-1" d="M180.45,62.49c0-2.34,1.34-4.16,4-4.16s3.86,1.81,3.86,4.2-1.34,4.17-4,4.17S180.45,64.88,180.45,62.49Zm6.63,0c0-2.53-1-3.79-2.84-3.79-1.64,0-2.6,1.57-2.6,3.75,0,2.53,1,3.8,2.84,3.8C186.13,66.29,187.08,64.71,187.08,62.53Z"/><path class="cls-1" d="M194.87,60.85l1.45,4.32,1.49-3.77-.94-.31v-.24h2.23v.24l-.82.32-2.12,5.12h-.37l-1.4-3.93L193,66.53h-.37l-2-5.16-.78-.29v-.24h2.65v.28l-.78.25,1.4,3.75,1.46-4.28Z"/><path class="cls-1" d="M200.4,66.53v-.24l.88-.26v-4.5l-.88-.11v-.29l1.86-.46v.9a3,3,0,0,1,2-.9,1.6,1.6,0,0,1,1.66,1.81V66l.88.26v.24H204v-.24l.88-.26V62.72c0-.91-.49-1.33-1.22-1.33a2.06,2.06,0,0,0-1.42.65v4l.88.26v.24Z"/><path class="cls-1" d="M208.22,63.93c0-1.93,1.09-3.25,2.71-3.25a1.94,1.94,0,0,1,2.16,2.07,2.84,2.84,0,0,1,0,.38h-3.81c0,.12,0,.24,0,.37,0,1.61.74,2.55,1.89,2.55a3,3,0,0,0,1.76-.65l.17.28a3.59,3.59,0,0,1-2.4,1C209.23,66.7,208.22,65.68,208.22,63.93Zm1.07-1.15H212c0-.13,0-.24,0-.36,0-.85-.37-1.4-1.13-1.4S209.49,61.56,209.29,62.78Z"/><path class="cls-1" d="M214.86,66.53v-.24l.88-.26v-4.5l-.88-.11v-.29l1.86-.46V62a3.17,3.17,0,0,1,1.83-1.28.52.52,0,0,1,.55.55,1.51,1.51,0,0,1-.22.66,3,3,0,0,0-.94-.22,1.65,1.65,0,0,0-1.24.79V66l1.07.26v.24Z"/><path class="cls-2" d="M47.34,28.83V47.72H41V39.42c-3.45,5.22-9.41,8.1-16.14,8.1-10.67,0-19.28-8.07-19.28-18.74A19.3,19.3,0,0,1,38.85,15.45l-4.22,4.21A13.34,13.34,0,1,0,36.13,36h-9V28.83Z"/><path class="cls-2" d="M94.6,38.69,98.86,43a19,19,0,0,1-31-10.18,11.74,11.74,0,0,1-2.69,1.53l-.09,0,.09.15,7.73,13.06H65.65l-7.77-12,0,0h-8.5V28.67H59.65a5.84,5.84,0,0,0,1.41,0,6.44,6.44,0,0,0,.1-12.75,6.57,6.57,0,0,0-.8-.05l-13,.32V25H41V9.3H60.36q.4,0,.8,0a12.67,12.67,0,0,1,10.56,7.18,19,19,0,0,1,28-1.48l-4.24,4.24a13,13,0,1,0-.85,19.43Z"/></svg>