<svg id="Layer_1" data-name="Layer 1" xmlns="http://www.w3.org/2000/svg" viewBox="0 0 220.25 70"><defs><style>.cls-1{opacity:0.99;}.cls-2{fill:#cb2026;}</style></defs><title>grc-logo-06</title><path d="M116.81,11.63h3.48v0q-.66.44-.66,3v3.3a9.09,9.09,0,0,1-2.38,1,9.29,9.29,0,0,1-2.58.4,6.73,6.73,0,0,1-7-7.06,7.24,7.24,0,0,1,2-5.43,7.4,7.4,0,0,1,5.4-2,12.63,12.63,0,0,1,3.8.54l.3,3.26,0,0A5.26,5.26,0,0,0,115,7a4,4,0,0,0-3.25,1.37,5.59,5.59,0,0,0-1.17,3.75,5.73,5.73,0,0,0,1.14,3.76,3.85,3.85,0,0,0,3.14,1.38,5.15,5.15,0,0,0,2.2-.44V13.55a4.08,4.08,0,0,0-3,1l0,0,.32-3.06A16.37,16.37,0,0,0,116.81,11.63Z"/><path d="M135.71,15.79a9.77,9.77,0,0,0,.94,2,5.41,5.41,0,0,0,1,1.27v0h-4.52v0a1.05,1.05,0,0,0,.31-.81,5,5,0,0,0-.31-1.65l-.18-.48h-5.16l-.18.48a5.37,5.37,0,0,0-.32,1.65,1.12,1.12,0,0,0,.28.81v0h-4.2v0a7.77,7.77,0,0,0,1.94-3.24l2.86-8.24a3.29,3.29,0,0,0,.11-1.5,1.48,1.48,0,0,0-.47-.84v0h5.3v0a1.75,1.75,0,0,0-.48.86,3,3,0,0,0,.12,1.48Zm-5.38-8A20.89,20.89,0,0,1,129.21,12l-.74,2.12h3.84L131.57,12a22.2,22.2,0,0,1-1.16-4.18Z"/><path d="M141.49,19.07v0a2.34,2.34,0,0,0,.76-1.06,4.91,4.91,0,0,0,.32-1.9v-8a5.14,5.14,0,0,0-.28-1.69,2.26,2.26,0,0,0-.8-1.17v0H146a5.18,5.18,0,0,0,.82,1.92l2.88,4.84a28.83,28.83,0,0,1,1.84,4h.08a23.89,23.89,0,0,1-.32-4.12V8.17A5.44,5.44,0,0,0,151,6.25a2.06,2.06,0,0,0-.73-1v0h4.62v0a2.21,2.21,0,0,0-.76,1.05,5,5,0,0,0-.32,1.91v7.9a5,5,0,0,0,.32,1.91,2.2,2.2,0,0,0,.76,1v0h-4.22a13.93,13.93,0,0,0-1-1.9l-2.82-4.58A21,21,0,0,1,144.81,8h-.08a28,28,0,0,1,.36,4.64v3.4a5.44,5.44,0,0,0,.29,1.92,2,2,0,0,0,.73,1v0Z"/><path d="M165.75,5.17a5.39,5.39,0,0,1,3.72,1.18,4.24,4.24,0,0,1,1.32,3.34,4.66,4.66,0,0,1-1.3,3.6,5.32,5.32,0,0,1-3.74,1.2h-1.64v1.66a4.73,4.73,0,0,0,.32,1.85,2.2,2.2,0,0,0,.76,1v0h-4.9v0a2.34,2.34,0,0,0,.76-1.06,4.91,4.91,0,0,0,.32-1.9v-8a4.71,4.71,0,0,0-.32-1.85,2.2,2.2,0,0,0-.76-1v0Zm-.46,7.34a2.59,2.59,0,0,0,2-.67,2.82,2.82,0,0,0,.65-2,2.77,2.77,0,0,0-.65-2,2.74,2.74,0,0,0-2-.65h-1.18v5.34Z"/><path d="M185.63,15.79a9.77,9.77,0,0,0,.94,2,5.41,5.41,0,0,0,1,1.27v0h-4.52v0a1.06,1.06,0,0,0,.31-.81,5,5,0,0,0-.31-1.65l-.18-.48h-5.16l-.18.48a5.38,5.38,0,0,0-.32,1.65,1.12,1.12,0,0,0,.28.81v0h-4.2v0a7.77,7.77,0,0,0,1.94-3.24l2.86-8.24a3.29,3.29,0,0,0,.11-1.5,1.48,1.48,0,0,0-.47-.84v0h5.3v0a1.76,1.76,0,0,0-.48.86,3,3,0,0,0,.12,1.48Zm-5.38-8A21,21,0,0,1,179.13,12l-.74,2.12h3.84L181.49,12a22.18,22.18,0,0,1-1.16-4.18Z"/><path d="M200.55,5l.34,3.66,0,0a3,3,0,0,0-2.6-1.48h-1.5v8.7a5.13,5.13,0,0,0,.35,2A2.13,2.13,0,0,0,198,19v0h-5.18v0a2.33,2.33,0,0,0,.85-1.11,4.92,4.92,0,0,0,.37-2V7.21h-1.52a3,3,0,0,0-2.6,1.48l0,0L190.19,5a21.27,21.27,0,0,0,2.74.16h4.88A21.28,21.28,0,0,0,200.55,5Z"/><path d="M205.47,19.07v0a2.35,2.35,0,0,0,.76-1.06,4.93,4.93,0,0,0,.32-1.9V8.17a4.91,4.91,0,0,0-.32-1.91,2.35,2.35,0,0,0-.76-1.05v0h4.92v0a2.34,2.34,0,0,0-.76,1.06,4.92,4.92,0,0,0-.32,1.9v7.9a4.91,4.91,0,0,0,.32,1.91,2.34,2.34,0,0,0,.76,1v0Z"/><path d="M117.81,34.37a5.14,5.14,0,0,0,2.6,2.34v0l-4.1.74a11.48,11.48,0,0,0-1-2.22l-3.1-5.3h1q2.68,0,2.68-2.48a2.24,2.24,0,0,0-.7-1.74,2.77,2.77,0,0,0-2-.62l-1.4,0v9a5,5,0,0,0,.3,1.83,2.4,2.4,0,0,0,.7,1v0h-4.82v0a2.2,2.2,0,0,0,.76-1,5,5,0,0,0,.32-1.91v-8a4.73,4.73,0,0,0-.32-1.85,2.21,2.21,0,0,0-.76-1v0h5.68a5.59,5.59,0,0,1,3.72,1.13,3.83,3.83,0,0,1,1.34,3.09,3.74,3.74,0,0,1-2.72,4Z"/><path d="M130.67,37.47a6.82,6.82,0,0,1-5.2-2,7.25,7.25,0,0,1-1.92-5.19,7.45,7.45,0,0,1,2-5.44,7.24,7.24,0,0,1,5.43-2,7,7,0,0,1,5.17,2,7.09,7.09,0,0,1,2,5.21,7.38,7.38,0,0,1-2,5.43A7.25,7.25,0,0,1,130.67,37.47Zm.2-2.08A3.81,3.81,0,0,0,133.94,34a5.73,5.73,0,0,0,1.19-3.79A6,6,0,0,0,134,26.25a3.93,3.93,0,0,0-3.2-1.4,3.76,3.76,0,0,0-3.1,1.42,5.86,5.86,0,0,0-1.14,3.78A6.18,6.18,0,0,0,127.65,34,3.86,3.86,0,0,0,130.87,35.39Z"/><path d="M153.51,33.79a9.77,9.77,0,0,0,.94,2,5.41,5.41,0,0,0,1,1.27v0H151v0a1.05,1.05,0,0,0,.31-.81,5,5,0,0,0-.31-1.65l-.18-.48h-5.16l-.18.48a5.37,5.37,0,0,0-.32,1.65,1.12,1.12,0,0,0,.28.81v0h-4.2v0a7.77,7.77,0,0,0,1.94-3.24L146,25.55a3.29,3.29,0,0,0,.11-1.5,1.48,1.48,0,0,0-.47-.84v0h5.3v0a1.75,1.75,0,0,0-.48.86,3,3,0,0,0,.12,1.48Zm-5.38-8A20.89,20.89,0,0,1,147,30l-.74,2.12h3.84L149.37,30a22.2,22.2,0,0,1-1.16-4.18Z"/><path d="M159.29,37.07v0a2.34,2.34,0,0,0,.76-1.06,4.91,4.91,0,0,0,.32-1.9v-7.9a5,5,0,0,0-.33-1.86,2.34,2.34,0,0,0-.75-1.1v0h5.8A6.94,6.94,0,0,1,170.16,25a6.8,6.8,0,0,1,1.89,5.09,7,7,0,0,1-1.82,5.15,7.45,7.45,0,0,1-5.46,1.81Zm3.82-2H165A3.75,3.75,0,0,0,168,33.81a5.67,5.67,0,0,0,1.06-3.7,5.66,5.66,0,0,0-1-3.75,4,4,0,0,0-3.18-1.21h-1.76Z"/><path d="M114.67,55.37a6.74,6.74,0,0,1-5.11-2,7.14,7.14,0,0,1-1.93-5.14,7.1,7.1,0,0,1,2-5.34,7.54,7.54,0,0,1,5.48-2,12.42,12.42,0,0,1,3.52.5l.32,3.46,0,0a3.86,3.86,0,0,0-1.61-1.4,5.07,5.07,0,0,0-2.21-.48,4.22,4.22,0,0,0-3.31,1.35A5.3,5.3,0,0,0,110.61,48a6.06,6.06,0,0,0,1.11,3.8,3.74,3.74,0,0,0,3.15,1.44,5.44,5.44,0,0,0,2.6-.57,6,6,0,0,0,1.9-1.67l0,0-.48,3.58A12.78,12.78,0,0,1,114.67,55.37Z"/><path d="M135.21,51.79a9.77,9.77,0,0,0,.94,2,5.41,5.41,0,0,0,1,1.27v0h-4.52v0a1.05,1.05,0,0,0,.31-.81,5,5,0,0,0-.31-1.65l-.18-.48h-5.16l-.18.48a5.37,5.37,0,0,0-.32,1.65,1.12,1.12,0,0,0,.28.81v0h-4.2v0a7.77,7.77,0,0,0,1.94-3.24l2.86-8.24a3.29,3.29,0,0,0,.11-1.5,1.48,1.48,0,0,0-.47-.84v0h5.3v0a1.75,1.75,0,0,0-.48.86,3,3,0,0,0,.12,1.48Zm-5.38-8A20.89,20.89,0,0,1,128.71,48L128,50.13h3.84L131.07,48a22.2,22.2,0,0,1-1.16-4.18Z"/><path d="M150.87,52.37a5.14,5.14,0,0,0,2.6,2.34v0l-4.1.74a11.42,11.42,0,0,0-1-2.22l-3.1-5.3h1q2.68,0,2.68-2.48a2.24,2.24,0,0,0-.7-1.74,2.77,2.77,0,0,0-2-.62l-1.4,0v9a4.94,4.94,0,0,0,.3,1.83,2.39,2.39,0,0,0,.7,1v0H141v0a2.2,2.2,0,0,0,.76-1,5,5,0,0,0,.32-1.91v-8a4.71,4.71,0,0,0-.32-1.85,2.2,2.2,0,0,0-.76-1v0h5.68a5.6,5.6,0,0,1,3.72,1.13,3.83,3.83,0,0,1,1.34,3.09,3.74,3.74,0,0,1-2.72,4Z"/><path d="M167.09,52.37a5.14,5.14,0,0,0,2.6,2.34v0l-4.1.74a11.42,11.42,0,0,0-1-2.22l-3.1-5.3h1q2.68,0,2.68-2.48a2.24,2.24,0,0,0-.7-1.74,2.77,2.77,0,0,0-2-.62l-1.4,0v9a4.94,4.94,0,0,0,.3,1.83,2.39,2.39,0,0,0,.7,1v0h-4.82v0a2.2,2.2,0,0,0,.76-1,5,5,0,0,0,.32-1.91v-8a4.71,4.71,0,0,0-.32-1.85,2.2,2.2,0,0,0-.76-1v0h5.68a5.6,5.6,0,0,1,3.72,1.13A3.83,3.83,0,0,1,168,45.39a3.74,3.74,0,0,1-2.72,4Z"/><path d="M173.43,55.07v0a2.34,2.34,0,0,0,.76-1.06,4.91,4.91,0,0,0,.32-1.9v-7.9a4.89,4.89,0,0,0-.32-1.91,2.35,2.35,0,0,0-.76-1.05v0h4.92v0a2.34,2.34,0,0,0-.76,1.06,4.9,4.9,0,0,0-.32,1.9v7.9a4.89,4.89,0,0,0,.32,1.91,2.34,2.34,0,0,0,.76,1v0Z"/><path d="M193.73,51.23l0,0-.56,4a15.45,15.45,0,0,0-2.44-.16h-7.06v0a2.35,2.35,0,0,0,.76-1.06,4.93,4.93,0,0,0,.32-1.9v-7.9a4.91,4.91,0,0,0-.32-1.91,2.35,2.35,0,0,0-.76-1.05v0h7.18A10.34,10.34,0,0,0,193,41l.34,3.58,0,0q-.72-1.48-3.14-1.48h-2.64v3.52h1.52a25.6,25.6,0,0,0,3.12-.14l-.58,3.36h0a2.07,2.07,0,0,0-2.18-1.26h-1.84v4.5h2.18A4.58,4.58,0,0,0,193.73,51.23Z"/><path d="M208.59,52.37a5.14,5.14,0,0,0,2.6,2.34v0l-4.1.74a11.48,11.48,0,0,0-1-2.22L203,48h1q2.68,0,2.68-2.48a2.24,2.24,0,0,0-.7-1.74,2.77,2.77,0,0,0-2-.62l-1.4,0v9a5,5,0,0,0,.3,1.83,2.4,2.4,0,0,0,.7,1v0h-4.82v0a2.2,2.2,0,0,0,.76-1,5,5,0,0,0,.32-1.91v-8a4.73,4.73,0,0,0-.32-1.85,2.21,2.21,0,0,0-.76-1v0h5.68a5.59,5.59,0,0,1,3.72,1.13,3.83,3.83,0,0,1,1.34,3.09,3.74,3.74,0,0,1-2.72,4Z"/><path class="cls-1" d="M5.23,60.85v6.45l1.12.27v.24H3.08v-.24l1.12-.27V60.85H2.37l-.53,1.5H1.55v-1.9H7.88v1.9H7.59l-.53-1.5Z"/><path class="cls-1" d="M9.94,67.81v-.22l.8-.24V63.22l-.8-.1v-.26l1.71-.42v1.18a2.91,2.91,0,0,1,1.68-1.18.47.47,0,0,1,.51.51,1.39,1.39,0,0,1-.2.6,2.82,2.82,0,0,0-.86-.2,1.51,1.51,0,0,0-1.13.73v3.27l1,.24v.22Z"/><path class="cls-1" d="M20.27,67.79a3.17,3.17,0,0,1-1,.18c-.43,0-.72-.22-.72-.62v-.2A2.06,2.06,0,0,1,17,68c-.68,0-1.28-.33-1.28-1,0-1,1-1.56,2.85-1.78v-1.3c0-.8-.31-1.09-.8-1.09s-1.06.42-1.08,1.33h-.21c-.5,0-.62-.19-.62-.43,0-.72,1.09-1.21,2.19-1.21a1.28,1.28,0,0,1,1.42,1.46v3c0,.51.14.67.54.67h.28Zm-2.9-.35a1.56,1.56,0,0,0,1.19-.75V65.44c-1.12.18-1.87.64-1.87,1.25A.65.65,0,0,0,17.36,67.44Z"/><path class="cls-1" d="M22.12,67.81v-.22l.8-.24V63.22l-.8-.1v-.26l1.71-.42v.83a2.74,2.74,0,0,1,1.8-.83,1.47,1.47,0,0,1,1.52,1.66v3.25l.8.24v.22H25.45v-.22l.8-.24v-3c0-.84-.45-1.22-1.12-1.22a1.89,1.89,0,0,0-1.3.59v3.66l.8.24v.22Z"/><path class="cls-1" d="M31.62,68c-.89,0-1.83-.32-1.83-1,0-.33.32-.59.75-.63,0,.86.42,1.29,1.11,1.29s1.11-.34,1.11-.86-.4-.73-1.21-1.13S30,64.86,30,64a1.65,1.65,0,0,1,1.8-1.54c.91,0,1.57.33,1.57.95,0,.4-.37.53-.8.53,0-.65-.24-1.16-.94-1.16a.83.83,0,0,0-.91.86c0,.54.57.81,1.3,1.17s1.54.79,1.54,1.64S32.67,68,31.62,68Z"/><path class="cls-1" d="M35.52,70.34v-.22l.8-.24V63.22l-.8-.1v-.26l1.71-.42v.83A2.43,2.43,0,0,1,39,62.44c1.17,0,2,1,2,2.5a2.7,2.7,0,0,1-2.64,3,4.1,4.1,0,0,1-1.11-.19v2.1l.91.24v.22Zm1.71-6.64V67.2a1.84,1.84,0,0,0,1.19.45c.9,0,1.65-.91,1.65-2.28s-.59-2.27-1.6-2.27A1.81,1.81,0,0,0,37.23,63.7Z"/><path class="cls-1" d="M43.29,65.24a2.51,2.51,0,0,1,2.55-2.79,2.48,2.48,0,0,1,2.53,2.72A2.52,2.52,0,0,1,45.82,68,2.49,2.49,0,0,1,43.29,65.24Zm4,0c0-1.76-.56-2.44-1.5-2.44s-1.47.69-1.47,2.45.56,2.45,1.5,2.45S47.31,67,47.31,65.19Z"/><path class="cls-1" d="M50.48,67.81v-.22l.8-.24V63.22l-.8-.1v-.26l1.71-.42v1.18a2.91,2.91,0,0,1,1.68-1.18.47.47,0,0,1,.51.51,1.39,1.39,0,0,1-.2.6,2.82,2.82,0,0,0-.86-.2,1.51,1.51,0,0,0-1.13.73v3.27l1,.24v.22Z"/><path class="cls-1" d="M56.86,66.78V63h-.67v-.43h.68l.45-1.28h.44v1.28h1.52V63H57.76V66.6c0,.66.25.87.65.87a1.71,1.71,0,0,0,.81-.28l.1.3A2.26,2.26,0,0,1,58,68,1,1,0,0,1,56.86,66.78Z"/><path class="cls-1" d="M71.59,67.45a5.87,5.87,0,0,1-2.3.52,3.55,3.55,0,0,1-3.81-3.75c0-2.56,1.54-3.93,3.66-3.93a8.81,8.81,0,0,1,2.5.47l.07,1.68h-.37a2.19,2.19,0,0,0-2.26-1.79c-1.53,0-2.51,1.35-2.51,3.45s1,3.49,2.77,3.49a1.94,1.94,0,0,0,2-1.82h.42Z"/><path class="cls-1" d="M74.15,65.24A2.55,2.55,0,1,1,76.68,68,2.51,2.51,0,0,1,74.15,65.24Zm4,0c0-1.76-.56-2.44-1.5-2.44s-1.47.69-1.47,2.45.56,2.45,1.5,2.45S78.18,67,78.18,65.19Z"/><path class="cls-1" d="M81.35,67.81v-.22l.8-.24V63.22l-.8-.1v-.26l1.71-.42v.83a2.74,2.74,0,0,1,1.8-.83,1.47,1.47,0,0,1,1.52,1.66v3.25l.8.24v.22H84.67v-.22l.8-.24v-3c0-.84-.45-1.22-1.12-1.22a1.89,1.89,0,0,0-1.3.59v3.66l.8.24v.22Z"/><path class="cls-1" d="M89.52,66.78V63h-.67v-.43h.68L90,61.32h.44v1.28h1.52V63H90.42V66.6c0,.66.25.87.65.87a1.71,1.71,0,0,0,.81-.28l.1.3a2.26,2.26,0,0,1-1.3.47A1,1,0,0,1,89.52,66.78Z"/><path class="cls-1" d="M94,67.81v-.22l.8-.24V63.22l-.8-.1v-.26l1.71-.42v1.18a2.91,2.91,0,0,1,1.68-1.18.47.47,0,0,1,.51.51,1.39,1.39,0,0,1-.2.6,2.82,2.82,0,0,0-.86-.2,1.51,1.51,0,0,0-1.13.73v3.27l1,.24v.22Z"/><path class="cls-1" d="M104.32,67.79a3.17,3.17,0,0,1-1,.18c-.43,0-.72-.22-.72-.62v-.2A2.06,2.06,0,0,1,101,68c-.68,0-1.28-.33-1.28-1,0-1,1-1.56,2.85-1.78v-1.3c0-.8-.31-1.09-.8-1.09s-1.06.42-1.08,1.33h-.21c-.5,0-.62-.19-.62-.43,0-.72,1.09-1.21,2.19-1.21a1.28,1.28,0,0,1,1.42,1.46v3c0,.51.14.67.54.67h.28Zm-2.9-.35a1.56,1.56,0,0,0,1.19-.75V65.44c-1.12.18-1.87.64-1.87,1.25A.65.65,0,0,0,101.41,67.44Z"/><path class="cls-1" d="M108.83,62.44c1,0,1.69.47,1.69,1.08,0,.36-.33.54-.86.54,0-.78-.33-1.31-1-1.31-.88,0-1.56.89-1.56,2.37s.66,2.24,1.73,2.24a2.66,2.66,0,0,0,1.56-.6l.15.25a3.32,3.32,0,0,1-2.11,1,2.18,2.18,0,0,1-2.27-2.38C106.21,64.11,107,62.44,108.83,62.44Z"/><path class="cls-1" d="M113.24,66.78V63h-.67v-.43h.68l.45-1.28h.44v1.28h1.52V63h-1.52V66.6c0,.66.25.87.65.87a1.71,1.71,0,0,0,.81-.28l.1.3a2.26,2.26,0,0,1-1.3.47A1,1,0,0,1,113.24,66.78Z"/><path class="cls-1" d="M117.57,65.42c0-1.77,1-3,2.49-3a1.78,1.78,0,0,1,2,1.9,2.63,2.63,0,0,1,0,.35h-3.5c0,.11,0,.22,0,.34,0,1.47.68,2.34,1.74,2.34a2.71,2.71,0,0,0,1.62-.59L122,67a3.29,3.29,0,0,1-2.2.92A2.25,2.25,0,0,1,117.57,65.42Zm1-1.06H121c0-.12,0-.22,0-.33,0-.78-.34-1.29-1-1.29S118.74,63.24,118.55,64.37Z"/><path class="cls-1" d="M124.2,67.81v-.22l.8-.24V63.22l-.8-.1v-.26l1.71-.42v1.18a2.91,2.91,0,0,1,1.68-1.18.47.47,0,0,1,.51.51,1.39,1.39,0,0,1-.2.6,2.82,2.82,0,0,0-.86-.2,1.51,1.51,0,0,0-1.13.73v3.27l1,.24v.22Z"/><path class="cls-1" d="M140.29,64.39l-1.37,1.9c.62.83,1,1.22,1.55,1.22h.5v.24a3.77,3.77,0,0,1-1.12.21,1.86,1.86,0,0,1-1.56-.9,2.77,2.77,0,0,1-2,.9A2,2,0,0,1,134,66a2.6,2.6,0,0,1,1.83-2.3,3,3,0,0,1-.68-1.61,1.63,1.63,0,0,1,1.79-1.55c.87,0,1.69.45,1.69,1.35a2.24,2.24,0,0,1-1.51,1.93L138.67,66l1-1.57-.77-.32v-.22h2.23v.22ZM138,66.74,136,64a2,2,0,0,0-1,1.82,1.55,1.55,0,0,0,1.57,1.69A2,2,0,0,0,138,66.74Zm-1.46-3.63.33.45a2,2,0,0,0,.84-1.61c0-.57-.27-1.08-.87-1.08a.85.85,0,0,0-.88.88A2.42,2.42,0,0,0,136.58,63.11Z"/><path class="cls-1" d="M150.34,67.57v.24h-3.22v-.24l1-.27V61l-1-.28v-.24h5.43v1.87h-.29l-.54-1.46h-2.54v2.9h1.44l.39-1.09h.24v2.57H151l-.39-1.09h-1.44v3.15Z"/><path class="cls-1" d="M154.53,67.81v-.22l.8-.24V60.6l-.8-.1v-.26l1.71-.42v7.53l.8.24v.22Z"/><path class="cls-1" d="M159,65.42c0-1.77,1-3,2.49-3a1.78,1.78,0,0,1,2,1.9,2.63,2.63,0,0,1,0,.35h-3.5c0,.11,0,.22,0,.34,0,1.47.68,2.34,1.74,2.34a2.71,2.71,0,0,0,1.62-.59l.15.25a3.29,3.29,0,0,1-2.2.92A2.25,2.25,0,0,1,159,65.42Zm1-1.06h2.44c0-.12,0-.22,0-.33,0-.78-.34-1.29-1-1.29S160.13,63.24,159.94,64.37Z"/><path class="cls-1" d="M165.63,65.42c0-1.77,1-3,2.49-3a1.78,1.78,0,0,1,2,1.9,2.63,2.63,0,0,1,0,.35h-3.5c0,.11,0,.22,0,.34,0,1.47.68,2.34,1.74,2.34a2.71,2.71,0,0,0,1.62-.59l.15.25a3.29,3.29,0,0,1-2.2.92A2.25,2.25,0,0,1,165.63,65.42Zm1-1.06H169c0-.12,0-.22,0-.33,0-.78-.34-1.29-1-1.29S166.79,63.24,166.61,64.37Z"/><path class="cls-1" d="M172.86,66.78V63h-.67v-.43h.68l.45-1.28h.44v1.28h1.52V63h-1.52V66.6c0,.66.25.87.65.87a1.71,1.71,0,0,0,.81-.28l.1.3A2.26,2.26,0,0,1,174,68,1,1,0,0,1,172.86,66.78Z"/><path class="cls-1" d="M181.48,64.1a3.48,3.48,0,0,1,3.63-3.82c2.46,0,3.54,1.66,3.54,3.85S187.42,68,185,68,181.48,66.29,181.48,64.1Zm6.08,0c0-2.32-1-3.48-2.61-3.48s-2.39,1.44-2.39,3.44c0,2.32,1,3.49,2.61,3.49S187.56,66.14,187.56,64.13Z"/><path class="cls-1" d="M195.25,62.59l1.33,4,1.36-3.46-.86-.29v-.22h2v.22l-.75.3-1.95,4.7h-.34l-1.29-3.61-1.32,3.61h-.34l-1.86-4.73-.71-.26v-.22H193v.25l-.71.23,1.29,3.44,1.34-3.93Z"/><path class="cls-1" d="M200.86,67.81v-.22l.8-.24V63.22l-.8-.1v-.26l1.71-.42v.83a2.74,2.74,0,0,1,1.8-.83,1.47,1.47,0,0,1,1.52,1.66v3.25l.8.24v.22h-2.51v-.22l.8-.24v-3c0-.84-.45-1.22-1.12-1.22a1.89,1.89,0,0,0-1.3.59v3.66l.8.24v.22Z"/><path class="cls-1" d="M208.58,65.42c0-1.77,1-3,2.49-3a1.78,1.78,0,0,1,2,1.9,2.63,2.63,0,0,1,0,.35h-3.5c0,.11,0,.22,0,.34,0,1.47.68,2.34,1.74,2.34a2.71,2.71,0,0,0,1.62-.59L213,67a3.29,3.29,0,0,1-2.2.92A2.25,2.25,0,0,1,208.58,65.42Zm1-1.06H212c0-.12,0-.22,0-.33,0-.78-.34-1.29-1-1.29S209.75,63.24,209.56,64.37Z"/><path class="cls-1" d="M215.22,67.81v-.22l.8-.24V63.22l-.8-.1v-.26l1.71-.42v1.18a2.91,2.91,0,0,1,1.68-1.18.47.47,0,0,1,.51.51,1.39,1.39,0,0,1-.2.6,2.82,2.82,0,0,0-.86-.2,1.51,1.51,0,0,0-1.13.73v3.27l1,.24v.22Z"/><path class="cls-2" d="M45.06,29.87V47.72h-6V39.87c-3.26,4.94-8.9,7.65-15.26,7.65-10.08,0-18.22-7.63-18.22-17.72A18.25,18.25,0,0,1,37,17.21l-4,4a12.61,12.61,0,1,0,1.41,15.43H25.94V29.87Z"/><path class="cls-2" d="M89.74,39.19l4,4A18,18,0,0,1,64.44,33.6,11.1,11.1,0,0,1,61.9,35l-.08,0,.08.14L69.2,47.57H62.37L55,36.23l0,0H47v-6.5H56.7a5.52,5.52,0,0,0,1.33,0,6.09,6.09,0,0,0,.09-12.05,6.21,6.21,0,0,0-.76-.05l-12.3.3v8.34h-6V11.4h18.3q.38,0,.76,0a12,12,0,0,1,10,6.78,18,18,0,0,1,26.45-1.4l-4,4a12.31,12.31,0,1,0-.81,18.37Z"/></svg>